<svg width="115" height="28" viewBox="0 0 115 28" fill="none" xmlns="http://www.w3.org/2000/svg">
<path fill-rule="evenodd" clip-rule="evenodd" d="M8.67552 0.888576C4.99699 -1.49792 -0.00295011 1.21066 1.30603e-06 5.58826L0.0115312 22.6913C0.0142906 26.7836 4.44818 29.2988 8.13689 27.3006L22.4972 19.5214C26.1859 17.5232 26.4861 12.4434 23.0473 10.2125L8.67552 0.888576ZM11.1223 6.90785C9.3838 5.20427 6.29232 6.12409 5.75816 8.50383L3.67126 17.8014C3.17192 20.026 5.3116 21.883 7.59234 21.2044L16.4713 18.5627C18.7521 17.8841 19.5395 15.1562 17.9144 13.5636L11.1223 6.90785Z" fill="url(#paint0_linear_618_294)"/>
<path d="M35.1324 10.9986C36.1827 9.76638 37.1774 9.15026 38.1164 9.15026C39.1875 9.15026 39.9735 9.56218 40.4743 10.386C40.8986 10.0058 41.3681 9.72061 41.8828 9.53049C42.3975 9.34038 42.9539 9.24532 43.5521 9.24532C44.9154 9.24532 45.8404 9.93185 46.3273 11.3049C46.4247 11.5866 46.5743 12.5407 46.776 14.1672C46.9707 15.3079 47.2211 17.2091 47.5272 19.8707C47.555 20.2721 47.4193 20.603 47.1203 20.8636C46.8212 21.1241 46.4699 21.2544 46.0665 21.2544C45.2666 21.2544 44.7971 20.853 44.658 20.0503C44.5328 19.325 44.4041 18.3005 44.272 16.9767C44.1329 15.5262 44.0181 14.4982 43.9277 13.8926C43.7399 12.6322 43.4999 12.002 43.2078 12.002C43.0478 12.002 42.6826 12.164 42.1123 12.4879C41.5419 12.8118 41.1246 13.0899 40.8603 13.3223C40.8603 14.125 40.9542 15.2798 41.142 16.7866C41.3368 18.3287 41.4341 19.4835 41.4341 20.251C41.4341 20.6523 41.2985 20.9868 41.0272 21.2544C40.756 21.5219 40.4117 21.6557 39.9943 21.6557C39.577 21.6557 39.2327 21.5219 38.9614 21.2544C38.6902 20.9868 38.5546 20.6523 38.5546 20.251C38.5546 19.4483 38.4676 18.2688 38.2937 16.7127C38.1268 15.1495 38.0433 13.9666 38.0433 13.1638C38.0433 12.7132 38.0051 12.3541 37.9286 12.0865C37.1217 12.5583 36.3114 13.3434 35.4976 14.4418C35.4628 14.4911 35.4037 14.5651 35.3202 14.6636C35.2924 16.086 35.2785 17.2021 35.2785 18.0118C35.2785 18.209 35.2715 18.4766 35.2576 18.8145C35.2437 19.1455 35.2368 19.3919 35.2368 19.5539C35.2368 19.9341 35.0838 20.2334 34.7777 20.4517C34.4995 20.6559 34.1552 20.758 33.7448 20.758C33.1536 20.758 32.7537 20.4974 32.545 19.9764C32.3989 19.6243 32.3259 19.0645 32.3259 18.297V14.3679C32.3259 14.0158 32.312 13.5018 32.2842 12.8259C32.2563 12.1428 32.2424 11.6253 32.2424 11.2732C32.2424 10.6465 32.3537 10.0797 32.5763 9.57274C32.8476 8.93902 33.2301 8.62216 33.7239 8.62216C34.1135 8.62216 34.4612 8.77707 34.7673 9.08689C35.0733 9.38966 35.2263 9.72413 35.2263 10.0903C35.2263 9.94241 35.195 10.2452 35.1324 10.9986Z" fill="#131D35"/>
<path d="M54.1932 20.9692C52.9064 20.9692 51.8005 20.5221 50.8754 19.6278C49.8599 18.6491 49.3278 17.3429 49.2791 15.7093C49.2304 14.1532 49.6512 12.766 50.5415 11.5478C51.5988 10.1114 53.0699 9.39319 54.9548 9.39319C56.3459 9.39319 57.4518 9.95649 58.2726 11.0831C59.0099 12.0971 59.3785 13.354 59.3785 14.8538C59.3785 16.4874 58.9473 17.8816 58.0848 19.0363C57.118 20.3249 55.8208 20.9692 54.1932 20.9692ZM54.8192 12.1816C53.9637 12.1745 53.289 12.5688 52.7951 13.3645C52.3778 14.0334 52.1691 14.815 52.1691 15.7093C52.1691 16.5543 52.4056 17.2021 52.8786 17.6527C53.2542 18.0118 53.6924 18.1914 54.1932 18.1914C54.7983 18.1914 55.3235 17.9837 55.7686 17.5682C56.2764 17.0824 56.5476 16.424 56.5824 15.5931C56.6728 13.3258 56.0851 12.1886 54.8192 12.1816Z" fill="#131D35"/>
<path d="M70.2178 21.0959C69.3623 21.0959 68.8859 20.6699 68.7885 19.8179C68.6911 19.0927 68.5937 18.3639 68.4964 17.6316C68.392 16.857 68.3399 16.1283 68.3399 15.4452C68.3399 15.2622 68.3503 14.9488 68.3712 14.5052C68.399 14.0616 68.4129 13.7483 68.4129 13.5652C68.4129 13.5159 68.4198 13.3927 68.4338 13.1955C68.4477 12.9913 68.4546 12.8259 68.4546 12.6991C68.4546 12.1147 68.3051 11.8225 68.006 11.8225C67.3661 11.8225 66.7366 12.2027 66.1176 12.9632C65.5055 13.7166 65.0256 14.6742 64.6778 15.836C64.6639 16.0684 64.6326 16.3782 64.5839 16.7655C64.5421 17.0824 64.5213 17.3922 64.5213 17.695C64.5213 17.8921 64.5421 18.1914 64.5839 18.5927C64.6326 18.987 64.6569 19.2828 64.6569 19.4799C64.6569 19.8813 64.5178 20.2122 64.2396 20.4728C63.9683 20.7404 63.624 20.8741 63.2067 20.8741C62.7894 20.8741 62.4451 20.7404 62.1738 20.4728C61.9025 20.2122 61.7669 19.8813 61.7669 19.4799C61.7669 19.2828 61.746 18.987 61.7043 18.5927C61.6626 18.1914 61.6417 17.8921 61.6417 17.695C61.6417 17.019 61.6904 16.079 61.7878 14.8749C61.8851 13.6708 61.9338 12.7308 61.9338 12.0548C61.9338 11.8436 61.9199 11.5302 61.8921 11.1148C61.8712 10.6923 61.8608 10.379 61.8608 10.1748C61.8608 9.78046 61.9999 9.45656 62.2781 9.20307C62.5633 8.94254 62.9111 8.81227 63.3215 8.81227C64.2326 8.81227 64.7195 9.36502 64.7821 10.4705L64.7925 10.5867C65.8081 9.55162 66.8792 9.03408 68.006 9.03408C69.3206 9.03408 70.2283 9.59034 70.7291 10.7029C71.0629 11.4493 71.2299 12.5653 71.2299 14.0511V14.801C71.2229 15.1249 71.2194 15.3537 71.2194 15.4875C71.2194 16.0367 71.2925 16.7444 71.4385 17.6105C71.5916 18.4766 71.6681 19.1807 71.6681 19.7229C71.6681 20.1172 71.529 20.4446 71.2507 20.7051C70.9725 20.9657 70.6282 21.0959 70.2178 21.0959Z" fill="#131D35"/>
<path d="M77.249 18.7934C77.249 20.1313 76.7691 20.8002 75.8092 20.8002C75.3919 20.8002 75.0476 20.6664 74.7763 20.3988C74.5051 20.1313 74.3694 19.7862 74.3694 19.3638V4.75644C74.3694 4.34805 74.5155 4.01358 74.8076 3.75305C75.0859 3.51364 75.4302 3.39394 75.8405 3.39394C76.2509 3.39394 76.5883 3.52068 76.8526 3.77417C77.1169 4.02062 77.249 4.34805 77.249 4.75644V18.7934Z" fill="#131D35"/>
<path d="M85.0523 20.9692C83.7655 20.9692 82.6596 20.5221 81.7345 19.6278C80.719 18.6491 80.1869 17.3429 80.1382 15.7093C80.0895 14.1532 80.5103 12.766 81.4006 11.5478C82.4579 10.1114 83.929 9.39319 85.8139 9.39319C87.205 9.39319 88.3109 9.95649 89.1317 11.0831C89.869 12.0971 90.2376 13.354 90.2376 14.8538C90.2376 16.4874 89.8064 17.8816 88.9439 19.0363C87.9771 20.3249 86.6799 20.9692 85.0523 20.9692ZM85.6783 12.1816C84.8227 12.1745 84.1481 12.5688 83.6542 13.3645C83.2369 14.0334 83.0282 14.815 83.0282 15.7093C83.0282 16.5543 83.2647 17.2021 83.7377 17.6527C84.1133 18.0118 84.5515 18.1914 85.0523 18.1914C85.6574 18.1914 86.1825 17.9837 86.6277 17.5682C87.1355 17.0824 87.4067 16.424 87.4415 15.5931C87.5319 13.3258 86.9442 12.1886 85.6783 12.1816Z" fill="#131D35"/>
<path d="M102.527 14.0511C102.235 15.7058 102.061 17.452 102.006 19.2898C101.936 21.5642 101.56 23.2154 100.879 24.2434C99.9675 25.6165 98.3539 26.303 96.0377 26.303C93.332 26.303 91.9791 25.7608 91.9791 24.6765C91.9791 24.2892 92.1009 23.9759 92.3443 23.7365C92.5877 23.497 92.9077 23.3773 93.3042 23.3773C93.6172 23.3773 94.0658 23.4372 94.6501 23.5569C95.2343 23.6766 95.7525 23.7365 96.2046 23.7365C97.241 23.7365 98.0061 23.4161 98.4999 22.7753C98.9729 22.1486 99.2511 21.1523 99.3346 19.7862C98.9799 20.1524 98.5799 20.427 98.1348 20.6101C97.6896 20.7932 97.2027 20.8847 96.6741 20.8847C95.29 20.8847 94.1632 20.4305 93.2937 19.5222C92.4312 18.6068 92 17.4379 92 16.0156C92 14.1003 92.5773 12.5512 93.7319 11.3683C94.9283 10.1431 96.5454 9.53049 98.5834 9.53049C99.2372 9.53049 99.8006 9.61147 100.274 9.77342C100.747 9.93537 101.129 10.1818 101.421 10.5128C102.305 10.6184 102.746 11.1465 102.746 12.0971C102.746 12.5688 102.673 13.2202 102.527 14.0511ZM98.4791 11.9386C97.3036 11.9386 96.3889 12.3294 95.7351 13.111C95.1508 13.8222 94.8587 14.7446 94.8587 15.8783C94.8587 16.7162 95.0152 17.3464 95.3282 17.7689C95.6412 18.1914 96.1107 18.4026 96.7367 18.4026C97.3071 18.4026 97.8809 18.0682 98.4582 17.3992C99.0007 16.7655 99.3102 16.1388 99.3867 15.5192C99.5189 14.8432 99.6719 13.7905 99.8458 12.3611C99.6093 12.2203 99.3763 12.1147 99.1468 12.0443C98.9173 11.9738 98.6947 11.9386 98.4791 11.9386Z" fill="#131D35"/>
<path d="M109.36 20.9692C108.073 20.9692 106.967 20.5221 106.042 19.6278C105.027 18.6491 104.495 17.3429 104.446 15.7093C104.397 14.1532 104.818 12.766 105.708 11.5478C106.766 10.1114 108.237 9.39319 110.122 9.39319C111.513 9.39319 112.619 9.95649 113.44 11.0831C114.177 12.0971 114.545 13.354 114.545 14.8538C114.545 16.4874 114.114 17.8816 113.252 19.0363C112.285 20.3249 110.988 20.9692 109.36 20.9692ZM109.986 12.1816C109.131 12.1745 108.456 12.5688 107.962 13.3645C107.545 14.0334 107.336 14.815 107.336 15.7093C107.336 16.5543 107.573 17.2021 108.046 17.6527C108.421 18.0118 108.859 18.1914 109.36 18.1914C109.965 18.1914 110.49 17.9837 110.936 17.5682C111.443 17.0824 111.715 16.424 111.749 15.5931C111.84 13.3258 111.252 12.1886 109.986 12.1816Z" fill="#131D35"/>
<defs>
<linearGradient id="paint0_linear_618_294" x1="0" y1="0" x2="25.4545" y2="28" gradientUnits="userSpaceOnUse">
<stop stop-color="#4811D4"/>
<stop offset="1" stop-color="#6B5BFB"/>
</linearGradient>
</defs>
</svg>
